# xmcd
#
# Track frame offsets:
#	150
#	11913
#	24870
#	36350
#	50229
#	61325
#	74902
#	87165
#	101523
#	112849
#	130739
#	150364
#	162759
#	173348
#	184247
#	201503
#
# Disc length: 2800 seconds
#
# Revision: 0
# Processed by: cddbd v1.5.2PL0 Copyright (c) Steve Scherf et al.
# Submitted via: dBpowerAMP V4.0
#
DISCID=d30aee10
DTITLE=Mac Beattie and his Melodiers - This Ottawa Valley of Mine
DYEAR=1900
DGENRE=Country
TTITLE0=This Ottawa Valley of Mine
TTITLE1=Bonechere Waltz
TTITLE2=My Renfrew County Home
TTITLE3=Maple Sugar Blues
TTITLE4=Fittle, Guitar and Washboard
TTITLE5=Log Drivers song
TTITLE6=Northern Ontario Blues
TTITLE7=A Canadian Song of Thanks
TTITLE8=Lake Dore Waltz
TTITLE9=Swing in the Hotel Renfrew
TTITLE10=Bank Robbery At Cobden
TTITLE11=Moonshine Mac
TTITLE12=Saturday Night Up The Gatineau
TTITLE13=Take Me Back to the Madawaska Valley
TTITLE14=Train Wreck at Almonte
TTITLE15=Back in the Pakenham Hills
EXTD=
EXTT0=
EXTT1=
EXTT2=
EXTT3=
EXTT4=
EXTT5=
EXTT6=
EXTT7=
EXTT8=
EXTT9=
EXTT10=
EXTT11=
EXTT12=
EXTT13=
EXTT14=
EXTT15=
PLAYORDER=
